<svg xmlns="http://www.w3.org/2000/svg" width="400" height="400" viewBox="0 0 400 400">
  <metadata><?xpacket begin="﻿" id="W5M0MpCehiHzreSzNTczkc9d"?>
<x:xmpmeta xmlns:x="adobe:ns:meta/" x:xmptk="Adobe XMP Core 5.6-c138 79.159824, 2016/09/14-01:09:01        ">
   <rdf:RDF xmlns:rdf="http://www.w3.org/1999/02/22-rdf-syntax-ns#">
      <rdf:Description rdf:about=""/>
   </rdf:RDF>
</x:xmpmeta>
                                                                                                    
                                                                                                    
                                                                                                    
                                                                                                    
                                                                                                    
                                                                                                    
                                                                                                    
                                                                                                    
                                                                                                    
                                                                                                    
                                                                                                    
                                                                                                    
                                                                                                    
                                                                                                    
                                                                                                    
                                                                                                    
                                                                                                    
                                                                                                    
                                                                                                    
                                                                                                    
                           
<?xpacket end="w"?></metadata>
<defs>
    <style>
      .cls-1, .cls-2 {
        fill: #fff;
      }

      .cls-1 {
        fill-rule: evenodd;
      }

      .cls-2 {
        font-size: 36px;
        text-anchor: middle;
        font-family: Ubuntu;
      }
    </style>
  </defs>
  <g id="Artboard_1" data-name="Artboard 1">
    <path id="fa-clock-o" class="cls-1" d="M211.923,95.41a3.125,3.125,0,0,0-2.306-.9H203.2a3.088,3.088,0,0,0-3.208,3.208V133H177.536a3.089,3.089,0,0,0-3.208,3.208v6.416a3.089,3.089,0,0,0,3.208,3.208h32.081a3.088,3.088,0,0,0,3.208-3.208V97.716A3.125,3.125,0,0,0,211.923,95.41Zm15.438,84.812a54.83,54.83,0,0,1-54.737,0,54.33,54.33,0,0,1-19.849-19.849,54.83,54.83,0,0,1,0-54.737,54.349,54.349,0,0,1,19.849-19.85,54.835,54.835,0,0,1,54.737,0,54.382,54.382,0,0,1,19.85,19.85,54.837,54.837,0,0,1,0,54.737A54.363,54.363,0,0,1,227.361,180.222ZM238.639,66.337a77.484,77.484,0,0,0-77.293,0,76.645,76.645,0,0,0-28.02,28.02,77.484,77.484,0,0,0,0,77.294,76.628,76.628,0,0,0,28.02,28.02,77.483,77.483,0,0,0,77.293,0,76.643,76.643,0,0,0,28.02-28.02,77.484,77.484,0,0,0,0-77.294A76.661,76.661,0,0,0,238.639,66.337Z"/>
    <text id="_2.5s" data-name="2.5s" class="cls-2" transform="translate(200 318.024) scale(2.675)">2.5s</text>
  </g>
</svg>
